<?xml version="1.0" encoding="UTF-8"?>
<svg width="16px" height="13px" viewBox="0 0 16 13" version="1.1" xmlns="http://www.w3.org/2000/svg" xmlns:xlink="http://www.w3.org/1999/xlink">
    <!-- Generator: Sketch 63.1 (92452) - https://sketch.com -->
    <title>icon-folder</title>
    <desc>Created with Sketch.</desc>
    <g id="v2" stroke="none" stroke-width="1" fill="none" fill-rule="evenodd">
        <g id="4_config" transform="translate(-541.000000, -268.000000)">
            <g id="icon-folder" transform="translate(536.932534, 262.500000)">
                <path d="M4.14424287,16.2271256 L4.1860956,16.1769023 L7.00696949,12.8621662 C7.6849837,12.0585938 8.98241828,11.4642851 10.0287365,11.4642851 L16.9930305,11.4642851 L16.9930305,10.1249978 C16.9930305,9.09542064 16.1476054,8.24999553 15.1180283,8.24999553 L10.5644514,8.24999553 L10.5644514,7.98213807 C10.5644514,6.95256095 9.7190263,6.10713583 8.68944918,6.10713583 L6.01087456,6.10713583 C4.98129744,6.10713583 4.13587232,6.95256095 4.13587232,7.98213807 L4.13587232,16.0178619 L4.14424287,16.2271256 L4.14424287,16.2271256 Z M14.5823133,17.8928642 C15.3189214,17.8928642 16.3066458,17.4408547 16.7921374,16.8716576 L19.6046408,13.5569215 C19.7385695,13.4062517 19.8641277,13.2053586 19.8641277,13.0044655 C19.8641277,12.6277909 19.4372298,12.5357149 19.1358902,12.5357149 L10.0287365,12.5357149 C9.29212847,12.5357149 8.30440408,12.9877244 7.81891243,13.5569215 L5.00640907,16.8716576 C4.87248034,17.0223274 4.74692216,17.2232205 4.74692216,17.4241136 C4.74692216,17.8007882 5.17381999,17.8928642 5.47515963,17.8928642 L14.5823133,17.8928642 Z" id="ï¼" fill="#000000" fill-rule="nonzero" opacity="0.18"></path>
                <rect id="Rectangle" x="0" y="0" width="24" height="24"></rect>
            </g>
        </g>
    </g>
</svg>